<?xml version="1.0" encoding="UTF-8"?>
<svg xmlns="http://www.w3.org/2000/svg" width="1600" height="1200" viewBox="0 0 1600 1200" role="img" aria-label="Sanitized n8n execution observation for two successful PF07 events">
  <defs><pattern id="g" width="40" height="40" patternUnits="userSpaceOnUse"><path d="M40 0H0V40" fill="none" stroke="#d8d3c8" opacity=".35"/></pattern><filter id="s" x="-20%" y="-20%" width="140%" height="150%"><feDropShadow dy="18" stdDeviation="22" flood-color="#17201d" flood-opacity=".12"/></filter></defs>
  <rect width="1600" height="1200" fill="#f5f2ea"/><rect width="1600" height="1200" fill="url(#g)"/>
  <g font-family="Arial, sans-serif"><text x="92" y="100" fill="#3f6250" font-size="22" font-weight="800">CASE-014 · ACTUAL n8n OBSERVATION</text><text x="92" y="188" fill="#18201d" font-size="58" font-weight="800">Two events. Two successful executions.</text><text x="92" y="242" fill="#3f6250" font-size="25" font-weight="700">Package-owned execution database · read-only observation</text>
    <g transform="translate(92 330)" filter="url(#s)"><rect width="1416" height="690" rx="44" fill="#fffdf8" stroke="#d8d3c8" stroke-width="3"/>
      <rect x="50" y="50" width="600" height="590" rx="32" fill="#18201d"/><circle cx="118" cy="122" r="30" fill="#c68b39"/><text x="170" y="134" fill="#f5f2ea" font-size="30" font-weight="800">OddRoom OrderOps</text><text x="72" y="220" fill="#b9c9bc" font-size="20" font-weight="700">ACTIVE WORKFLOW</text><text x="72" y="286" fill="#f5f2ea" font-size="64" font-weight="800">2 / 2</text><text x="72" y="334" fill="#b9c9bc" font-size="23" font-weight="700">successful executions</text>
      <rect x="72" y="410" width="506" height="76" rx="20" fill="#2d4939"/><text x="98" y="458" fill="#f5f2ea" font-size="23" font-weight="700">ORDER_CREATED · 3.600 s</text><rect x="72" y="510" width="506" height="76" rx="20" fill="#2d4939"/><text x="98" y="558" fill="#f5f2ea" font-size="23" font-weight="700">PAYMENT_CONFIRMED · 6.625 s</text>
      <g transform="translate(714 60)"><text x="0" y="36" fill="#3f6250" font-size="20" font-weight="800">MODE BOUNDARY</text><rect y="72" width="630" height="116" rx="26" fill="#eef2ec" stroke="#c6d5ca" stroke-width="2"/><circle cx="54" cy="130" r="18" fill="#3f6250"/><text x="92" y="142" fill="#18201d" font-size="28" font-weight="800">CONNECTED workflow active</text>
        <rect y="212" width="630" height="116" rx="26" fill="#f1efe9" stroke="#d8d3c8" stroke-width="2"/><circle cx="54" cy="270" r="18" fill="#d8d3c8"/><text x="92" y="282" fill="#18201d" font-size="28" font-weight="800">DEMO adapter inactive</text>
        <text x="0" y="414" fill="#3f6250" font-size="20" font-weight="800">OBSERVED RESULT</text><text x="0" y="474" fill="#18201d" font-size="31" font-weight="800">success · success</text><text x="0" y="528" fill="#54635c" font-size="23">No generated or simulated service result.</text><text x="0" y="568" fill="#54635c" font-size="23">No token, URL, customer, or remote ID shown.</text>
      </g>
    </g>
  </g>
</svg>
