<?xml version="1.0" encoding="UTF-8"?>
<svg xmlns="http://www.w3.org/2000/svg" width="1600" height="1200" viewBox="0 0 1600 1200" role="img" aria-label="Sanitized Slack delivery checkpoint observation">
  <defs><pattern id="g" width="40" height="40" patternUnits="userSpaceOnUse"><path d="M40 0H0V40" fill="none" stroke="#d8d3c8" opacity=".35"/></pattern><filter id="s" x="-20%" y="-20%" width="140%" height="150%"><feDropShadow dy="18" stdDeviation="22" flood-color="#17201d" flood-opacity=".12"/></filter></defs>
  <rect width="1600" height="1200" fill="#18201d"/><rect width="1600" height="1200" fill="url(#g)" opacity=".14"/>
  <g font-family="Arial, sans-serif"><text x="92" y="100" fill="#b9c9bc" font-size="22" font-weight="800">CASE-016 · ACTUAL SLACK DELIVERY CHECKPOINT</text><text x="92" y="188" fill="#f5f2ea" font-size="58" font-weight="800">Posted once, checkpointed once.</text><text x="92" y="242" fill="#b9c9bc" font-size="25" font-weight="700">Observed through the delivered CONNECTED_MODE path</text>
    <g transform="translate(92 330)" filter="url(#s)"><rect width="1416" height="690" rx="44" fill="#fffdf8" stroke="#d8d3c8" stroke-width="3"/>
      <g transform="translate(62 62)"><circle cx="74" cy="74" r="74" fill="#3f6250"/><path d="m38 76 26 27 50-58" fill="none" stroke="#f5f2ea" stroke-width="18" stroke-linecap="round" stroke-linejoin="round"/><text x="186" y="64" fill="#3f6250" font-size="20" font-weight="800">DELIVERY STATUS</text><text x="186" y="118" fill="#18201d" font-size="42" font-weight="800">posted</text>
        <rect x="0" y="198" width="1292" height="306" rx="30" fill="#eef2ec" stroke="#c6d5ca" stroke-width="2"/><text x="42" y="250" fill="#3f6250" font-size="20" font-weight="800">CORRELATED CHECKPOINT</text><text x="42" y="316" fill="#18201d" font-size="30" font-weight="800">PAYMENT_CONFIRMED</text><text x="42" y="370" fill="#54635c" font-size="24">order-…0041 · deal-…732692 · message-…073359</text>
        <rect x="42" y="418" width="260" height="58" rx="29" fill="#3f6250"/><text x="172" y="456" fill="#f5f2ea" font-size="20" font-weight="800" text-anchor="middle">HTTP 200</text><rect x="324" y="418" width="260" height="58" rx="29" fill="#3f6250"/><text x="454" y="456" fill="#f5f2ea" font-size="20" font-weight="800" text-anchor="middle">ATTEMPT 1</text><rect x="606" y="418" width="338" height="58" rx="29" fill="#3f6250"/><text x="775" y="456" fill="#f5f2ea" font-size="20" font-weight="800" text-anchor="middle">SYNTHETIC ONLY</text>
        <text x="0" y="574" fill="#b9c9bc" font-size="20" font-weight="700">Channel, token, message body, user, workspace, and full remote identifiers are intentionally absent.</text>
      </g>
    </g>
  </g>
</svg>
