<?xml version="1.0" encoding="UTF-8"?>
<svg xmlns="http://www.w3.org/2000/svg" width="1600" height="1200" viewBox="0 0 1600 1200" role="img" aria-label="Sanitized HubSpot Deal and Contact API observation">
  <defs><pattern id="g" width="40" height="40" patternUnits="userSpaceOnUse"><path d="M40 0H0V40" fill="none" stroke="#d8d3c8" opacity=".35"/></pattern><filter id="s" x="-20%" y="-20%" width="140%" height="150%"><feDropShadow dy="18" stdDeviation="22" flood-color="#17201d" flood-opacity=".12"/></filter></defs>
  <rect width="1600" height="1200" fill="#f5f2ea"/><rect width="1600" height="1200" fill="url(#g)"/>
  <g font-family="Arial, sans-serif"><text x="92" y="100" fill="#3f6250" font-size="22" font-weight="800">CASE-015 · ACTUAL HUBSPOT API OBSERVATION</text><text x="92" y="188" fill="#18201d" font-size="58" font-weight="800">Deal state and Contact association read back.</text><text x="92" y="242" fill="#3f6250" font-size="25" font-weight="700">Sanitized recipient observation · synthetic order only</text>
    <g transform="translate(92 330)" filter="url(#s)"><rect width="1416" height="690" rx="44" fill="#fffdf8" stroke="#d8d3c8" stroke-width="3"/>
      <g transform="translate(54 54)"><rect width="626" height="582" rx="34" fill="#18201d"/><circle cx="72" cy="78" r="28" fill="#c68b39"/><text x="120" y="90" fill="#f5f2ea" font-size="28" font-weight="800">DEAL READBACK</text><text x="58" y="196" fill="#b9c9bc" font-size="20" font-weight="700">REMOTE REFERENCE</text><text x="58" y="248" fill="#f5f2ea" font-size="38" font-weight="800">deal-…732692</text><text x="58" y="352" fill="#b9c9bc" font-size="20" font-weight="700">AUTHORITATIVE STATE</text><text x="58" y="406" fill="#f5f2ea" font-size="34" font-weight="800">PAYMENT_CONFIRMED</text><rect x="58" y="470" width="250" height="68" rx="34" fill="#2d4939"/><text x="183" y="514" fill="#f5f2ea" font-size="22" font-weight="800" text-anchor="middle">STATE RANK · 20</text></g>
      <g transform="translate(736 54)"><rect width="626" height="582" rx="34" fill="#eef2ec" stroke="#c6d5ca" stroke-width="2"/><circle cx="72" cy="78" r="28" fill="#3f6250"/><text x="120" y="90" fill="#18201d" font-size="28" font-weight="800">CONTACT ASSOCIATION</text><text x="58" y="196" fill="#3f6250" font-size="20" font-weight="700">REMOTE REFERENCE</text><text x="58" y="248" fill="#18201d" font-size="38" font-weight="800">contact-…770645</text><text x="58" y="352" fill="#3f6250" font-size="20" font-weight="700">READBACK COUNT</text><text x="58" y="420" fill="#18201d" font-size="72" font-weight="800">1</text><text x="120" y="420" fill="#54635c" font-size="25" font-weight="700">associated Contact</text><text x="58" y="512" fill="#54635c" font-size="22">Observed 2026-07-20 18:57 UTC</text></g>
    </g>
  </g>
</svg>
