<?xml version="1.0" encoding="UTF-8"?>
<svg xmlns="http://www.w3.org/2000/svg" width="2400" height="1600" viewBox="0 0 2400 1600" role="img" aria-label="PF07 failure retry recovery en">
  <defs>
    <pattern id="grid" width="48" height="48" patternUnits="userSpaceOnUse"><path d="M48 0H0V48" fill="none" stroke="#d8d6cf" stroke-width="1" opacity=".45"/></pattern>
    <filter id="shadow" x="-20%" y="-20%" width="140%" height="160%"><feDropShadow dx="0" dy="0" stdDeviation="0" flood-opacity="0"/></filter>
  </defs>
  
    <rect width="2400" height="1600" fill="#f3f0e7"/><rect width="2400" height="1600" fill="url(#grid)"/>
    
  <g transform="translate(120 112)"><rect width="80" height="80" fill="#f3f0e7"/>
  <rect x="8.8" y="11.200000000000001" width="44" height="24.8" fill="#a43f22"/>
  <rect x="27.200000000000003" y="44" width="44" height="24.8" fill="#171714"/></g><text x="226" y="164" fill="#171714" font-family="Arial, 'Noto Sans KR', sans-serif" font-size="32" font-weight="800" text-anchor="start">OFFSET / ORDER SYSTEM</text>
    <text x="120" y="340" fill="#171714" font-family="Arial, 'Noto Sans KR', sans-serif" font-size="74" font-weight="800" text-anchor="start">Failure stays visible until the same event recovers.</text>
    <text x="120" y="420" fill="#667045" font-family="Arial, 'Noto Sans KR', sans-serif" font-size="32" font-weight="700" text-anchor="start">Observed terminal → manual retry → completed path</text>
    <path d="M330 840H2070" stroke="#d8d6cf" stroke-width="18" stroke-linecap="round"/>
    <g transform="translate(210 650)" filter="url(#shadow)"><rect width="450" height="430" rx="36" fill="#ffffff" stroke="#d8d6cf" stroke-width="3"/>
        <circle cx="72" cy="78" r="30" fill="#b42318"/><text x="120" y="88" fill="#b42318" font-family="Arial, 'Noto Sans KR', sans-serif" font-size="24" font-weight="800" text-anchor="start">01</text>
        <text x="42" y="192" fill="#171714" font-family="Arial, 'Noto Sans KR', sans-serif" font-size="34" font-weight="800" text-anchor="start">FAILED</text><text x="42" y="252" fill="#171714" font-family="Arial, 'Noto Sans KR', sans-serif" font-size="25" font-weight="600" text-anchor="start">422 · payload kept</text>
        <rect x="42" y="318" width="366" height="12" rx="6" fill="#d8d6cf"/><rect x="42" y="318" width="92" height="12" rx="6" fill="#b42318"/>
      </g><g transform="translate(765 650)" filter="url(#shadow)"><rect width="450" height="430" rx="36" fill="#ffffff" stroke="#d8d6cf" stroke-width="3"/>
        <circle cx="72" cy="78" r="30" fill="#a43f22"/><text x="120" y="88" fill="#a43f22" font-family="Arial, 'Noto Sans KR', sans-serif" font-size="24" font-weight="800" text-anchor="start">02</text>
        <text x="42" y="192" fill="#171714" font-family="Arial, 'Noto Sans KR', sans-serif" font-size="34" font-weight="800" text-anchor="start">BOUNDED RETRY</text><text x="42" y="252" fill="#171714" font-family="Arial, 'Noto Sans KR', sans-serif" font-size="25" font-weight="600" text-anchor="start">attempt 2 / 6</text>
        <rect x="42" y="318" width="366" height="12" rx="6" fill="#d8d6cf"/><rect x="42" y="318" width="178" height="12" rx="6" fill="#a43f22"/>
      </g><g transform="translate(1320 650)" filter="url(#shadow)"><rect width="450" height="430" rx="36" fill="#ffffff" stroke="#d8d6cf" stroke-width="3"/>
        <circle cx="72" cy="78" r="30" fill="#536475"/><text x="120" y="88" fill="#536475" font-family="Arial, 'Noto Sans KR', sans-serif" font-size="24" font-weight="800" text-anchor="start">03</text>
        <text x="42" y="192" fill="#171714" font-family="Arial, 'Noto Sans KR', sans-serif" font-size="34" font-weight="800" text-anchor="start">OPERATOR REVIEW</text><text x="42" y="252" fill="#171714" font-family="Arial, 'Noto Sans KR', sans-serif" font-size="25" font-weight="600" text-anchor="start">outcome decision</text>
        <rect x="42" y="318" width="366" height="12" rx="6" fill="#d8d6cf"/><rect x="42" y="318" width="270" height="12" rx="6" fill="#536475"/>
      </g><g transform="translate(1875 650)" filter="url(#shadow)"><rect width="450" height="430" rx="36" fill="#ffffff" stroke="#d8d6cf" stroke-width="3"/>
        <circle cx="72" cy="78" r="30" fill="#667045"/><text x="120" y="88" fill="#667045" font-family="Arial, 'Noto Sans KR', sans-serif" font-size="24" font-weight="800" text-anchor="start">04</text>
        <text x="42" y="192" fill="#171714" font-family="Arial, 'Noto Sans KR', sans-serif" font-size="34" font-weight="800" text-anchor="start">RECOVERED</text><text x="42" y="252" fill="#171714" font-family="Arial, 'Noto Sans KR', sans-serif" font-size="25" font-weight="600" text-anchor="start">200 · no duplicate effect</text>
        <rect x="42" y="318" width="366" height="12" rx="6" fill="#d8d6cf"/><rect x="42" y="318" width="366" height="12" rx="6" fill="#667045"/>
      </g>
    <text x="120" y="1390" fill="#171714" font-family="Arial, 'Noto Sans KR', sans-serif" font-size="30" font-weight="700" text-anchor="start">Same payload hash · same order · write-once checkpoint</text>
    
  <g><rect x="1830" y="1340" width="450" height="64" rx="32" fill="#edf2ec" stroke="#c6d5ca" stroke-width="2"/>
  <text x="2055" y="1382" fill="#667045" font-family="Arial, 'Noto Sans KR', sans-serif" font-size="22" font-weight="700" text-anchor="middle">DEMO_MODE · OBSERVED</text></g>
  
</svg>
