<?xml version="1.0" encoding="UTF-8"?>
<svg xmlns="http://www.w3.org/2000/svg" width="2400" height="1600" viewBox="0 0 2400 1600" role="img" aria-label="PF07 implementation architecture en">
  <defs>
    <pattern id="grid" width="48" height="48" patternUnits="userSpaceOnUse"><path d="M48 0H0V48" fill="none" stroke="#d8d3c8" stroke-width="1" opacity=".45"/></pattern>
    <filter id="shadow" x="-20%" y="-20%" width="140%" height="160%"><feDropShadow dx="0" dy="20" stdDeviation="24" flood-color="#17201d" flood-opacity=".12"/></filter>
  </defs>
  
    <rect width="2400" height="1600" fill="#18201d"/><path d="M0 0h2400v1600H0z" fill="url(#grid)" opacity=".12"/>
    
  <g transform="translate(120 112)"><rect width="80" height="80" rx="20" fill="#b9c9bc"/>
  <path d="M22.400000000000002 24.8h24c9.6 0 16 6.4 16 16v14.399999999999999h-19.2v-9.6c0-3.2-2.4-5.6000000000000005-5.6000000000000005-5.6000000000000005h-16v-15.2h0.8z" fill="none" stroke="#f5f2ea" stroke-width="6" stroke-linecap="round" stroke-linejoin="round"/></g><text x="226" y="164" fill="#f5f2ea" font-family="Arial, 'Noto Sans KR', sans-serif" font-size="32" font-weight="800" text-anchor="start">ODDROOM / ORDEROPS</text>
    <text x="120" y="340" fill="#f5f2ea" font-family="Arial, 'Noto Sans KR', sans-serif" font-size="72" font-weight="800" text-anchor="start">One order fact follows one verified delivery path.</text>
    <text x="120" y="420" fill="#b9c9bc" font-family="Arial, 'Noto Sans KR', sans-serif" font-size="32" font-weight="700" text-anchor="start">Implemented data boundaries and mode-specific adapters</text>
    <path d="M280 860H2120" stroke="#b9c9bc" stroke-width="12" stroke-linecap="round" opacity=".7"/>
    <g transform="translate(120 650)" filter="url(#shadow)"><rect width="360" height="420" rx="42" fill="#fffdf8" stroke="#d8d3c8" stroke-width="3"/>
        <circle cx="180" cy="90" r="32" fill="#45697b"/>
        <text x="180" y="198" fill="#18201d" font-family="Arial, 'Noto Sans KR', sans-serif" font-size="28" font-weight="800" text-anchor="middle">WooCommerce</text><text x="180" y="250" fill="#18201d" font-family="Arial, 'Noto Sans KR', sans-serif" font-size="23" font-weight="600" text-anchor="middle">order fact</text>
        <rect x="54" y="314" width="252" height="58" rx="29" fill="#eef1eb"/><text x="180" y="351" fill="#3f6250" font-family="Arial, 'Noto Sans KR', sans-serif" font-size="20" font-weight="800" text-anchor="middle">LOCAL</text>
      </g><g transform="translate(580 650)" filter="url(#shadow)"><rect width="360" height="420" rx="42" fill="#3f6250" stroke="#3f6250" stroke-width="3"/>
        <circle cx="180" cy="90" r="32" fill="#f5f2ea"/>
        <text x="180" y="198" fill="#f5f2ea" font-family="Arial, 'Noto Sans KR', sans-serif" font-size="28" font-weight="800" text-anchor="middle">PF07 OUTBOX</text><text x="180" y="250" fill="#f5f2ea" font-family="Arial, 'Noto Sans KR', sans-serif" font-size="23" font-weight="600" text-anchor="middle">immutable snapshot</text>
        <rect x="54" y="314" width="252" height="58" rx="29" fill="#2d4939"/><text x="180" y="351" fill="#f5f2ea" font-family="Arial, 'Noto Sans KR', sans-serif" font-size="20" font-weight="800" text-anchor="middle">LOCAL</text>
      </g><g transform="translate(1040 650)" filter="url(#shadow)"><rect width="360" height="420" rx="42" fill="#fffdf8" stroke="#d8d3c8" stroke-width="3"/>
        <circle cx="180" cy="90" r="32" fill="#c68b39"/>
        <text x="180" y="198" fill="#18201d" font-family="Arial, 'Noto Sans KR', sans-serif" font-size="34" font-weight="800" text-anchor="middle">n8n</text><text x="180" y="250" fill="#18201d" font-family="Arial, 'Noto Sans KR', sans-serif" font-size="23" font-weight="600" text-anchor="middle">signature check</text>
        <rect x="54" y="314" width="252" height="58" rx="29" fill="#eef1eb"/><text x="180" y="351" fill="#3f6250" font-family="Arial, 'Noto Sans KR', sans-serif" font-size="20" font-weight="800" text-anchor="middle">DELIVERY</text>
      </g><g transform="translate(1500 650)" filter="url(#shadow)"><rect width="360" height="420" rx="42" fill="#fffdf8" stroke="#d8d3c8" stroke-width="3"/>
        <circle cx="180" cy="90" r="32" fill="#3f6250"/>
        <text x="180" y="198" fill="#18201d" font-family="Arial, 'Noto Sans KR', sans-serif" font-size="34" font-weight="800" text-anchor="middle">HubSpot</text><text x="180" y="250" fill="#18201d" font-family="Arial, 'Noto Sans KR', sans-serif" font-size="23" font-weight="600" text-anchor="middle">Contact · Deal</text>
        <rect x="54" y="314" width="252" height="58" rx="29" fill="#eef1eb"/><text x="180" y="351" fill="#3f6250" font-family="Arial, 'Noto Sans KR', sans-serif" font-size="20" font-weight="800" text-anchor="middle">DELIVERY</text>
      </g><g transform="translate(1960 650)" filter="url(#shadow)"><rect width="360" height="420" rx="42" fill="#fffdf8" stroke="#d8d3c8" stroke-width="3"/>
        <circle cx="180" cy="90" r="32" fill="#3f6250"/>
        <text x="180" y="198" fill="#18201d" font-family="Arial, 'Noto Sans KR', sans-serif" font-size="34" font-weight="800" text-anchor="middle">Slack</text><text x="180" y="250" fill="#18201d" font-family="Arial, 'Noto Sans KR', sans-serif" font-size="23" font-weight="600" text-anchor="middle">status notice</text>
        <rect x="54" y="314" width="252" height="58" rx="29" fill="#eef1eb"/><text x="180" y="351" fill="#3f6250" font-family="Arial, 'Noto Sans KR', sans-serif" font-size="20" font-weight="800" text-anchor="middle">DELIVERY</text>
      </g>
    
  <g><rect x="120" y="1268" width="380" height="64" rx="32" fill="#2c3b34" stroke="#587665" stroke-width="2"/>
  <text x="310" y="1310" fill="#f5f2ea" font-family="Arial, 'Noto Sans KR', sans-serif" font-size="22" font-weight="700" text-anchor="middle">DEMO_MODE</text></g>
    
  <g><rect x="528" y="1268" width="460" height="64" rx="32" fill="#2c3b34" stroke="#587665" stroke-width="2"/>
  <text x="758" y="1310" fill="#f5f2ea" font-family="Arial, 'Noto Sans KR', sans-serif" font-size="22" font-weight="700" text-anchor="middle">CONNECTED_MODE</text></g>
    <text x="1050" y="1310" fill="#b9c9bc" font-family="Arial, 'Noto Sans KR', sans-serif" font-size="28" font-weight="700" text-anchor="start">Same store · same run identity · different delivery adapter</text>
  
</svg>
