<?xml version="1.0" encoding="UTF-8"?>
<svg xmlns="http://www.w3.org/2000/svg" width="2880" height="1800" viewBox="0 0 2880 1800" role="img" aria-label="PF07 case hero ko">
  <defs>
    <pattern id="grid" width="48" height="48" patternUnits="userSpaceOnUse"><path d="M48 0H0V48" fill="none" stroke="#d8d6cf" stroke-width="1" opacity=".45"/></pattern>
    <filter id="shadow" x="-20%" y="-20%" width="140%" height="160%"><feDropShadow dx="0" dy="0" stdDeviation="0" flood-opacity="0"/></filter>
  </defs>
  
    <rect width="2880" height="1800" fill="#f3f0e7"/><rect width="2880" height="1800" fill="url(#grid)"/>
    
  <g transform="translate(144 128)"><rect width="96" height="96" fill="#f3f0e7"/>
  <rect x="10.56" y="13.440000000000001" width="52.800000000000004" height="29.759999999999998" fill="#a43f22"/>
  <rect x="32.64" y="52.800000000000004" width="52.800000000000004" height="29.759999999999998" fill="#171714"/></g><text x="268" y="192" fill="#171714" font-family="Arial, 'Noto Sans KR', sans-serif" font-size="38" font-weight="800" text-anchor="start">OFFSET / ORDER SYSTEM</text>
    <text x="144" y="470" fill="#171714" font-family="Arial, 'Noto Sans KR', sans-serif" font-size="132" font-weight="800" text-anchor="start">주문 운영을</text>
    <text x="144" y="620" fill="#667045" font-family="Arial, 'Noto Sans KR', sans-serif" font-size="132" font-weight="800" text-anchor="start">복구 가능한 흐름으로.</text>
    <text x="154" y="740" fill="#171714" font-family="Arial, 'Noto Sans KR', sans-serif" font-size="42" font-weight="600" text-anchor="start">상점 · 운영 콘솔 · 자동화 · 공개 패키지</text>
    <g transform="translate(1620 188)" filter="url(#shadow)"><rect width="1080" height="1320" rx="70" fill="#ffffff" stroke="#d8d6cf" stroke-width="4"/>
      <rect x="72" y="76" width="936" height="520" rx="44" fill="#dfe7df"/>
      <path d="M170 430c230-220 498-250 744-96v182H170z" fill="#aab48a" opacity=".75"/><rect x="250" y="234" width="490" height="142" rx="58" fill="#171714" opacity=".9"/><path d="M290 303h180" stroke="#f3f0e7" stroke-width="24" stroke-linecap="round"/><circle cx="650" cy="303" r="34" fill="#a43f22"/>
      
  <g><rect x="74" y="660" width="240" height="64" rx="32" fill="#eef2ec" stroke="#c6d5ca" stroke-width="2"/>
  <text x="194" y="702" fill="#667045" font-family="Arial, 'Noto Sans KR', sans-serif" font-size="22" font-weight="700" text-anchor="middle">ORDER</text></g>
  <g><rect x="340" y="660" width="240" height="64" rx="32" fill="#f7efe1" stroke="#e6c79a" stroke-width="2"/>
  <text x="460" y="702" fill="#a43f22" font-family="Arial, 'Noto Sans KR', sans-serif" font-size="22" font-weight="700" text-anchor="middle">RETRY</text></g>
  <g><rect x="606" y="660" width="340" height="64" rx="32" fill="#eef2ec" stroke="#c6d5ca" stroke-width="2"/>
  <text x="776" y="702" fill="#667045" font-family="Arial, 'Noto Sans KR', sans-serif" font-size="22" font-weight="700" text-anchor="middle">RECOVERED</text></g>
      <path d="M160 900H920" stroke="#d8d6cf" stroke-width="14" stroke-linecap="round"/><circle cx="160" cy="900" r="28" fill="#667045"/><circle cx="412" cy="900" r="28" fill="#667045"/><circle cx="666" cy="900" r="28" fill="#a43f22"/><circle cx="920" cy="900" r="28" fill="#667045"/>
      <text x="160" y="980" fill="#171714" font-family="Arial, 'Noto Sans KR', sans-serif" font-size="24" font-weight="800" text-anchor="middle">WOO</text><text x="412" y="980" fill="#171714" font-family="Arial, 'Noto Sans KR', sans-serif" font-size="24" font-weight="800" text-anchor="middle">PF07</text><text x="666" y="980" fill="#171714" font-family="Arial, 'Noto Sans KR', sans-serif" font-size="24" font-weight="800" text-anchor="middle">n8n</text><text x="920" y="980" fill="#171714" font-family="Arial, 'Noto Sans KR', sans-serif" font-size="24" font-weight="800" text-anchor="middle">CRM</text>
      <rect x="74" y="1084" width="934" height="154" rx="34" fill="#171714"/><text x="541" y="1178" fill="#f3f0e7" font-family="Arial, 'Noto Sans KR', sans-serif" font-size="34" font-weight="800" text-anchor="middle">DEMO_MODE · CONNECTED_MODE</text>
    </g>
    
  <g><rect x="144" y="1302" width="410" height="64" rx="32" fill="#edf2ec" stroke="#c6d5ca" stroke-width="2"/>
  <text x="349" y="1344" fill="#667045" font-family="Arial, 'Noto Sans KR', sans-serif" font-size="22" font-weight="700" text-anchor="middle">PACKAGE-OWNED</text></g>
  <g><rect x="588" y="1302" width="342" height="64" rx="32" fill="#edf2ec" stroke="#c6d5ca" stroke-width="2"/>
  <text x="759" y="1344" fill="#667045" font-family="Arial, 'Noto Sans KR', sans-serif" font-size="22" font-weight="700" text-anchor="middle">0 KRW</text></g>
  
</svg>
