<?xml version="1.0" encoding="UTF-8"?>
<svg xmlns="http://www.w3.org/2000/svg" width="2880" height="1800" viewBox="0 0 2880 1800" role="img" aria-label="PF07 case hero en">
  <defs>
    <pattern id="grid" width="48" height="48" patternUnits="userSpaceOnUse"><path d="M48 0H0V48" fill="none" stroke="#d8d3c8" stroke-width="1" opacity=".45"/></pattern>
    <filter id="shadow" x="-20%" y="-20%" width="140%" height="160%"><feDropShadow dx="0" dy="20" stdDeviation="24" flood-color="#17201d" flood-opacity=".12"/></filter>
  </defs>
  
    <rect width="2880" height="1800" fill="#f5f2ea"/><rect width="2880" height="1800" fill="url(#grid)"/>
    
  <g transform="translate(144 128)"><rect width="96" height="96" rx="24" fill="#3f6250"/>
  <path d="M26.880000000000003 29.759999999999998h28.799999999999997c11.52 0 19.200000000000003 7.68 19.200000000000003 19.200000000000003v17.28h-23.04v-11.52c0-3.84-2.88-6.720000000000001-6.720000000000001-6.720000000000001h-19.200000000000003v-18.240000000000002h0.96z" fill="none" stroke="#f5f2ea" stroke-width="7.199999999999999" stroke-linecap="round" stroke-linejoin="round"/></g><text x="268" y="192" fill="#18201d" font-family="Arial, 'Noto Sans KR', sans-serif" font-size="38" font-weight="800" text-anchor="start">ODDROOM / ORDEROPS</text>
    <text x="144" y="470" fill="#18201d" font-family="Arial, 'Noto Sans KR', sans-serif" font-size="136" font-weight="800" text-anchor="start">Order operations,</text>
    <text x="144" y="620" fill="#3f6250" font-family="Arial, 'Noto Sans KR', sans-serif" font-size="136" font-weight="800" text-anchor="start">built to recover.</text>
    <text x="154" y="740" fill="#18201d" font-family="Arial, 'Noto Sans KR', sans-serif" font-size="42" font-weight="600" text-anchor="start">Storefront · operator console · automation · public packages</text>
    <g transform="translate(1620 188)" filter="url(#shadow)"><rect width="1080" height="1320" rx="70" fill="#fffdf8" stroke="#d8d3c8" stroke-width="4"/>
      <rect x="72" y="76" width="936" height="520" rx="44" fill="#dfe7df"/>
      <path d="M170 430c230-220 498-250 744-96v182H170z" fill="#b9c9bc" opacity=".75"/><rect x="250" y="234" width="490" height="142" rx="58" fill="#18201d" opacity=".9"/><path d="M290 303h180" stroke="#f5f2ea" stroke-width="24" stroke-linecap="round"/><circle cx="650" cy="303" r="34" fill="#c68b39"/>
      
  <g><rect x="74" y="660" width="240" height="64" rx="32" fill="#eef2ec" stroke="#c6d5ca" stroke-width="2"/>
  <text x="194" y="702" fill="#3f6250" font-family="Arial, 'Noto Sans KR', sans-serif" font-size="22" font-weight="700" text-anchor="middle">ORDER</text></g>
  <g><rect x="340" y="660" width="240" height="64" rx="32" fill="#f7efe1" stroke="#e6c79a" stroke-width="2"/>
  <text x="460" y="702" fill="#c68b39" font-family="Arial, 'Noto Sans KR', sans-serif" font-size="22" font-weight="700" text-anchor="middle">RETRY</text></g>
  <g><rect x="606" y="660" width="340" height="64" rx="32" fill="#eef2ec" stroke="#c6d5ca" stroke-width="2"/>
  <text x="776" y="702" fill="#3f6250" font-family="Arial, 'Noto Sans KR', sans-serif" font-size="22" font-weight="700" text-anchor="middle">RECOVERED</text></g>
      <path d="M160 900H920" stroke="#d8d3c8" stroke-width="14" stroke-linecap="round"/><circle cx="160" cy="900" r="28" fill="#3f6250"/><circle cx="412" cy="900" r="28" fill="#3f6250"/><circle cx="666" cy="900" r="28" fill="#c68b39"/><circle cx="920" cy="900" r="28" fill="#3f6250"/>
      <text x="160" y="980" fill="#18201d" font-family="Arial, 'Noto Sans KR', sans-serif" font-size="24" font-weight="800" text-anchor="middle">WOO</text><text x="412" y="980" fill="#18201d" font-family="Arial, 'Noto Sans KR', sans-serif" font-size="24" font-weight="800" text-anchor="middle">PF07</text><text x="666" y="980" fill="#18201d" font-family="Arial, 'Noto Sans KR', sans-serif" font-size="24" font-weight="800" text-anchor="middle">n8n</text><text x="920" y="980" fill="#18201d" font-family="Arial, 'Noto Sans KR', sans-serif" font-size="24" font-weight="800" text-anchor="middle">CRM</text>
      <rect x="74" y="1084" width="934" height="154" rx="34" fill="#18201d"/><text x="541" y="1178" fill="#f5f2ea" font-family="Arial, 'Noto Sans KR', sans-serif" font-size="34" font-weight="800" text-anchor="middle">DEMO_MODE · CONNECTED_MODE</text>
    </g>
    
  <g><rect x="144" y="1302" width="410" height="64" rx="32" fill="#edf2ec" stroke="#c6d5ca" stroke-width="2"/>
  <text x="349" y="1344" fill="#3f6250" font-family="Arial, 'Noto Sans KR', sans-serif" font-size="22" font-weight="700" text-anchor="middle">PACKAGE-OWNED</text></g>
  <g><rect x="588" y="1302" width="342" height="64" rx="32" fill="#edf2ec" stroke="#c6d5ca" stroke-width="2"/>
  <text x="759" y="1344" fill="#3f6250" font-family="Arial, 'Noto Sans KR', sans-serif" font-size="22" font-weight="700" text-anchor="middle">0 KRW</text></g>
  
</svg>
