<?xml version="1.0" encoding="UTF-8"?>
<svg xmlns="http://www.w3.org/2000/svg" width="1200" height="630" viewBox="0 0 1200 630" role="img" aria-label="OddRoom OrderOps ko social card">
  <defs>
    <pattern id="grid" width="48" height="48" patternUnits="userSpaceOnUse"><path d="M48 0H0V48" fill="none" stroke="#d8d3c8" stroke-width="1" opacity=".45"/></pattern>
    <filter id="shadow" x="-20%" y="-20%" width="140%" height="160%"><feDropShadow dx="0" dy="20" stdDeviation="24" flood-color="#17201d" flood-opacity=".12"/></filter>
  </defs>
  
    <rect width="1200" height="630" fill="#f5f2ea"/><rect width="1200" height="630" fill="url(#grid)"/>
    
  <g transform="translate(72 64)"><rect width="62" height="62" rx="15.5" fill="#3f6250"/>
  <path d="M17.360000000000003 19.22h18.599999999999998c7.4399999999999995 0 12.4 4.96 12.4 12.4v11.16h-14.879999999999999v-7.4399999999999995c0-2.48-1.8599999999999999-4.340000000000001-4.340000000000001-4.340000000000001h-12.4v-11.78h0.62z" fill="none" stroke="#f5f2ea" stroke-width="4.6499999999999995" stroke-linecap="round" stroke-linejoin="round"/></g><text x="154" y="104" fill="#18201d" font-family="Arial, 'Noto Sans KR', sans-serif" font-size="24" font-weight="800" text-anchor="start">ODDROOM / ORDEROPS</text>
    <text x="72" y="245" fill="#18201d" font-family="Arial, 'Noto Sans KR', sans-serif" font-size="55" font-weight="800" text-anchor="start">주문은 한 번 기록하고,</text>
    <text x="72" y="318" fill="#3f6250" font-family="Arial, 'Noto Sans KR', sans-serif" font-size="55" font-weight="800" text-anchor="start">전달은 끝까지 복구합니다.</text>
    <text x="75" y="390" fill="#18201d" font-family="Arial, 'Noto Sans KR', sans-serif" font-size="24" font-weight="600" text-anchor="start">WooCommerce → n8n → HubSpot · Slack</text>
    <g transform="translate(715 112)" filter="url(#shadow)"><rect width="410" height="390" rx="38" fill="#fffdf8" stroke="#d8d3c8" stroke-width="2"/>
      
  <g><rect x="36" y="42" width="142" height="64" rx="32" fill="#edf2ec" stroke="#c6d5ca" stroke-width="2"/>
  <text x="107" y="84" fill="#3f6250" font-family="Arial, 'Noto Sans KR', sans-serif" font-size="22" font-weight="700" text-anchor="middle">ORDER</text></g>
  <g><rect x="232" y="42" width="142" height="64" rx="32" fill="#edf2ec" stroke="#c6d5ca" stroke-width="2"/>
  <text x="303" y="84" fill="#3f6250" font-family="Arial, 'Noto Sans KR', sans-serif" font-size="22" font-weight="700" text-anchor="middle">READY</text></g>
      <path d="M74 164H336" stroke="#3f6250" stroke-width="10" stroke-linecap="round"/>
      <circle cx="74" cy="164" r="20" fill="#3f6250"/><circle cx="205" cy="164" r="20" fill="#c68b39"/><circle cx="336" cy="164" r="20" fill="#3f6250"/>
      <text x="74" y="225" fill="#18201d" font-family="Arial, 'Noto Sans KR', sans-serif" font-size="18" font-weight="700" text-anchor="middle">CAPTURE</text><text x="205" y="225" fill="#18201d" font-family="Arial, 'Noto Sans KR', sans-serif" font-size="18" font-weight="700" text-anchor="middle">RETRY</text><text x="336" y="225" fill="#18201d" font-family="Arial, 'Noto Sans KR', sans-serif" font-size="18" font-weight="700" text-anchor="middle">RECOVER</text>
      <rect x="36" y="276" width="338" height="72" rx="18" fill="#18201d"/><text x="205" y="320" fill="#f5f2ea" font-family="Arial, 'Noto Sans KR', sans-serif" font-size="20" font-weight="700" text-anchor="middle">DEMO MODE · 0 KRW</text>
    </g>
</svg>
