<svg xmlns="http://www.w3.org/2000/svg" width="1440" height="1580" viewBox="0 0 1440 1580" role="img" aria-labelledby="title desc">
  <title id="title">PF07 1.0.3 platform delivery entrypoints</title>
  <desc id="desc">Five exact public 1.0.3 packages, SHA-256 values, entrypoints, and honest validation boundaries.</desc>
  <style>
    text{font-family:"DejaVu Sans","Noto Sans KR",Arial,sans-serif;fill:#171a18}
    .eyebrow{font:700 16px "DejaVu Sans Mono",monospace;letter-spacing:2px;fill:#36513d}
    .title{font-size:52px;font-weight:800;letter-spacing:-2px}
    .subtitle{font-size:19px;fill:#555a52}
    .platform{font:800 18px "DejaVu Sans Mono",monospace}.entry{font:700 18px "DejaVu Sans Mono",monospace;fill:#36513d}
    .file{font-size:25px;font-weight:800}.hash{font:600 15px "DejaVu Sans Mono",monospace;fill:#555a52}
    .boundary{font:750 16px "DejaVu Sans Mono",monospace;letter-spacing:.4px;fill:#9c4f32}
    .light{fill:#f7f5ee}.light-muted{fill:#c8cbc3}.footer{font:650 14px "DejaVu Sans Mono",monospace;fill:#36513d}
  </style>
  <rect width="1440" height="1580" fill="#f4f0e6"/><path d="M0 0h1440v18H0z" fill="#36513d"/>
  <text x="72" y="82" class="eyebrow">PUBLIC DELIVERY / EXACT RELEASE BYTES</text>
  <text x="72" y="150" class="title">Choose the package for the environment.</text>
  <text x="72" y="198" class="subtitle">Native execution is claimed only where it was directly observed. Every hash below matches the public pf07-v1.0.3 release.</text>
  <text x="72" y="242" class="footer">pf07-build-c14f8fe0b8e95bea97bf · ARTIFACT SET 74b458a861d51da2e681b1201f138527731a2b87cde38f2f5f47438b3d20833e</text>
  <g transform="translate(72 286)">
    <rect width="1296" height="216" rx="18" fill="#ffffff" stroke="#252822" stroke-width="2"/>
    <rect width="236" height="216" rx="18" fill="#e6eadf"/>
    <text x="28" y="54" class="platform">WINDOWS x64</text>
    <text x="28" y="102" class="entry">PF07-Launcher.exe</text>
    <text x="264" y="52" class="file">pf07-windows-x64-1.0.3.zip</text>
    <text x="264" y="94" class="hash">SHA-256 969dfb6d5dab0c9dbe82554f9329abce5f8917804754b5ad2806a1168930ad80</text>
    <line x1="264" y1="124" x2="1264" y2="124" stroke="#d6d8d0"/>
    <text x="264" y="168" class="boundary">CROSS-BUILD + STATIC VALIDATION · NATIVE RUN NOT CLAIMED</text>
  </g>
<g transform="translate(72 530)">
    <rect width="1296" height="216" rx="18" fill="#ffffff" stroke="#252822" stroke-width="2"/>
    <rect width="236" height="216" rx="18" fill="#e6eadf"/>
    <text x="28" y="54" class="platform">WINDOWS KVM KIT</text>
    <text x="28" y="102" class="entry">RUN-KVM-TEST.cmd</text>
    <text x="264" y="52" class="file">pf07-windows-kvm-test-kit-1.0.3.zip</text>
    <text x="264" y="94" class="hash">SHA-256 6a8df9b9385ce0b7f85ccd192a0d716db7098641703c3d9e5d30e4474d065703</text>
    <line x1="264" y1="124" x2="1264" y2="124" stroke="#d6d8d0"/>
    <text x="264" y="168" class="boundary">OWNER KVM WORKFLOW READY · NATIVE RUN NOT CLAIMED</text>
  </g>
<g transform="translate(72 774)">
    <rect width="1296" height="216" rx="18" fill="#ffffff" stroke="#252822" stroke-width="2"/>
    <rect width="236" height="216" rx="18" fill="#e6eadf"/>
    <text x="28" y="54" class="platform">macOS UNIVERSAL</text>
    <text x="28" y="102" class="entry">PF07 Launcher.app</text>
    <text x="264" y="52" class="file">pf07-macos-universal-1.0.3.zip</text>
    <text x="264" y="94" class="hash">SHA-256 68062ddf03ec688b37e8f17422655e889165c325d91173dd341fdf405ff7aa22</text>
    <line x1="264" y1="124" x2="1264" y2="124" stroke="#d6d8d0"/>
    <text x="264" y="168" class="boundary">APP-BUNDLE STATIC VALIDATION · NATIVE RUN NOT CLAIMED</text>
  </g>
<g transform="translate(72 1018)">
    <rect width="1296" height="216" rx="18" fill="#171a18" stroke="#252822" stroke-width="2"/>
    <rect width="236" height="216" rx="18" fill="#36513d"/>
    <text x="28" y="54" class="platform light">LINUX LOCAL x86_64</text>
    <text x="28" y="102" class="entry light">./pf07</text>
    <text x="264" y="52" class="file light">pf07-linux-x86_64-1.0.3.tar.gz</text>
    <text x="264" y="94" class="hash light-muted">SHA-256 cd60c8b6b280f1347123262d4895b0fdf53e8d6de07eb59020d57fb8c4c67f2e</text>
    <line x1="264" y1="124" x2="1264" y2="124" stroke="#52574e"/>
    <text x="264" y="168" class="boundary light">CANONICAL-BYTE START · RECOVERY · RERUN OBSERVED</text>
  </g>
<g transform="translate(72 1262)">
    <rect width="1296" height="216" rx="18" fill="#171a18" stroke="#252822" stroke-width="2"/>
    <rect width="236" height="216" rx="18" fill="#36513d"/>
    <text x="28" y="54" class="platform light">LINUX SERVER x86_64</text>
    <text x="28" y="102" class="entry light">server/pf07-server</text>
    <text x="264" y="52" class="file light">pf07-linux-server-1.0.3.tar.gz</text>
    <text x="264" y="94" class="hash light-muted">SHA-256 33fb64edd845273ccc322fe358c0143e359c05c80ca0542fa62da2f363a1a2e4</text>
    <line x1="264" y1="124" x2="1264" y2="124" stroke="#52574e"/>
    <text x="264" y="168" class="boundary light">ISOLATED START · STOP · RECOVER · RERUN OBSERVED</text>
  </g>
  <rect x="72" y="1518" width="1296" height="42" rx="12" fill="#dce5d8"/>
  <text x="96" y="1545" class="footer">github.com/Cetacean916/oddroom-woo-orderops/releases/tag/pf07-v1.0.3</text>
</svg>
