<svg xmlns="http://www.w3.org/2000/svg" width="1440" height="1160" viewBox="0 0 1440 1160" role="img" aria-labelledby="title desc">
  <title id="title">PF07 1.0.3 observed validation scorecard</title>
  <desc id="desc">A public-safe scorecard of final CI, public release readback, Linux execution, recovery, connected mode, backup restore, and controlled update observations.</desc>
  <style>
    text{font-family:"DejaVu Sans","Noto Sans KR",Arial,sans-serif;fill:#171a18}
    .eyebrow{font:700 16px "DejaVu Sans Mono",monospace;letter-spacing:2px;fill:#ef8a67}
    .title{font-size:54px;font-weight:800;letter-spacing:-2px;fill:#f7f5ee}
    .subtitle{font-size:19px;fill:#c9ccc4}.meta{font:650 14px "DejaVu Sans Mono",monospace;fill:#aeb4aa}
    .card-eye{font:700 14px "DejaVu Sans Mono",monospace;letter-spacing:1.2px;fill:#36513d}
    .card-value{font-size:29px;font-weight:850}.card-note{font:650 12px "DejaVu Sans Mono",monospace;fill:#656a62}
    .footer{font:650 14px "DejaVu Sans Mono",monospace;fill:#dce5d8}
  </style>
  <rect width="1440" height="1160" fill="#171a18"/><path d="M0 0h1440v18H0z" fill="#ef8a67"/>
  <text x="72" y="78" class="eyebrow">OBSERVED VALIDATION / PUBLIC 1.0.3</text>
  <text x="72" y="148" class="title">Release facts that stay verifiable.</text>
  <text x="72" y="194" class="subtitle">Direct observations remain separate from native-platform claims that were not executed.</text>
  <text x="72" y="226" class="meta">pf07-build-c14f8fe0b8e95bea97bf · pf07-v1.0.3</text>
  <g transform="translate(72 260)">
    <rect width="630" height="140" rx="16" fill="#ffffff" stroke="#252822" stroke-width="2"/>
    <text x="24" y="34" class="card-eye">FINAL CI</text>
    <text x="24" y="79" class="card-value">SUCCESS</text>
    <text x="24" y="113" class="card-note">RUN 30070689929 · JOB 89410725798</text>
  </g>
<g transform="translate(726 260)">
    <rect width="630" height="140" rx="16" fill="#d9e9d6" stroke="#252822" stroke-width="2"/>
    <text x="24" y="34" class="card-eye">PUBLIC RELEASE</text>
    <text x="24" y="79" class="card-value">10 / 10</text>
    <text x="24" y="113" class="card-note">UNAUTHENTICATED NAME · SIZE · SHA-256 READBACK</text>
  </g>
<g transform="translate(72 424)">
    <rect width="630" height="140" rx="16" fill="#ffffff" stroke="#252822" stroke-width="2"/>
    <text x="24" y="34" class="card-eye">LINUX LOCAL</text>
    <text x="24" y="79" class="card-value">5 / 5 READY</text>
    <text x="24" y="113" class="card-note">CLEAN START · RECOVERY · RERUN</text>
  </g>
<g transform="translate(726 424)">
    <rect width="630" height="140" rx="16" fill="#ffffff" stroke="#252822" stroke-width="2"/>
    <text x="24" y="34" class="card-eye">LOCALES</text>
    <text x="24" y="79" class="card-value">KO ↔ EN</text>
    <text x="24" y="113" class="card-note">ONE RUNTIME · PRESERVED ORDER STATE</text>
  </g>
<g transform="translate(72 588)">
    <rect width="630" height="140" rx="16" fill="#ffffff" stroke="#252822" stroke-width="2"/>
    <text x="24" y="34" class="card-eye">RECOVERY</text>
    <text x="24" y="79" class="card-value">503 → 200</text>
    <text x="24" y="113" class="card-note">BOUNDED RETRY · SAME DURABLE EVENT</text>
  </g>
<g transform="translate(726 588)">
    <rect width="630" height="140" rx="16" fill="#ffffff" stroke="#252822" stroke-width="2"/>
    <text x="24" y="34" class="card-eye">CONNECTED MODE</text>
    <text x="24" y="79" class="card-value">PASS</text>
    <text x="24" y="113" class="card-note">n8n · HUBSPOT · SLACK · MASKED PUBLIC EVIDENCE</text>
  </g>
<g transform="translate(72 752)">
    <rect width="630" height="140" rx="16" fill="#ffffff" stroke="#252822" stroke-width="2"/>
    <text x="24" y="34" class="card-eye">BACKUP RESTORE</text>
    <text x="24" y="79" class="card-value">PASS</text>
    <text x="24" y="113" class="card-note">AUTHENTICATED ENCRYPTION · WRONG KEY REJECTED</text>
  </g>
<g transform="translate(726 752)">
    <rect width="630" height="140" rx="16" fill="#ffffff" stroke="#252822" stroke-width="2"/>
    <text x="24" y="34" class="card-eye">CONTROLLED UPDATE</text>
    <text x="24" y="79" class="card-value">1.0.2 → 1.0.3</text>
    <text x="24" y="113" class="card-note">PRESERVED SHOP · QUEUED ORDER COMPLETED ONCE</text>
  </g>
<g transform="translate(72 916)">
    <rect width="630" height="140" rx="16" fill="#ffffff" stroke="#252822" stroke-width="2"/>
    <text x="24" y="34" class="card-eye">LINUX SERVER</text>
    <text x="24" y="79" class="card-value">PASS</text>
    <text x="24" y="113" class="card-note">ISOLATED START · STOP · RECOVER · RERUN</text>
  </g>
<g transform="translate(726 916)">
    <rect width="630" height="140" rx="16" fill="#ffffff" stroke="#252822" stroke-width="2"/>
    <text x="24" y="34" class="card-eye">PUBLIC SOURCE</text>
    <text x="24" y="79" class="card-value">4085e87</text>
    <text x="24" y="113" class="card-note">TREE 214ee2e · REVIEWED BUILD INPUT</text>
  </g>
  <rect x="72" y="1090" width="1296" height="46" rx="12" fill="#36513d"/>
  <text x="96" y="1119" class="footer">CI 30070689929 · COMMIT 4085e87 · ARTIFACT SET 74b458a861d51da2e681b1201f138527731a2b87cde38f2f5f47438b3d20833e</text>
</svg>
